<svg id="Layer_1" data-name="Layer 1" xmlns="http://www.w3.org/2000/svg" viewBox="0 0 900 256.03"><defs><style>.cls-1{fill:#eabe6c;}</style></defs><polygon class="cls-1" points="294.6 30.34 280.73 16.2 266.58 30.34 280.73 44.19 294.6 30.34"/><path class="cls-1" d="M286.39,142.58a13.91,13.91,0,0,0,7.72,2.36h7.56V47.43L279.55,59.21v71a14.12,14.12,0,0,0,.88,5h-38c-3,0-5.12-1.57-6.49-4.72a147.73,147.73,0,0,1-8.4-18.41q-4.57-11.62-11.95-26.66-6.78-13.55-20.93-22.54t-36.27-9H80.51L125.62,6.77H99.08L56.62,51V63.63h98.2q16.8,0,25.36,7.81a54.18,54.18,0,0,1,13.27,18.7q5.6,12.38,10.32,24a154.83,154.83,0,0,0,10.32,21.07H38.93l-.15,0-.15,0H22.12V6.77L0,18.56V144.94H38.63l.15,0,.15,0H206.42l8.26-8.54q4.42,8.53,14.74,8.54h43.34L281,136.4A14.34,14.34,0,0,0,286.39,142.58Z"/><path class="cls-1" d="M480.38,130.21a14.32,14.32,0,0,0,.86,5h-51V6.76L408.12,18.57V130.21a14.34,14.34,0,0,0,.89,5H374.22V38L352.11,49.77v85.44H327v9.73h74.31l8.27-8.53a12.58,12.58,0,0,0,5.15,6.17,14.61,14.61,0,0,0,8.11,2.36h51l7.95-8.53a14.51,14.51,0,0,0,5.38,6.17,13.82,13.82,0,0,0,7.74,2.36h7.55V47.44L480.38,59.22Z"/><polygon class="cls-1" points="467.39 178.22 481.55 192.06 495.43 178.22 481.55 164.39 467.39 178.22"/><polygon class="cls-1" points="535.81 144.94 557.93 144.94 557.93 6.78 535.81 18.56 535.81 144.94"/><path class="cls-1" d="M600.7,137.27a76.27,76.27,0,0,1-1.2,14.29,42.59,42.59,0,0,1-2.36,8.1q-3.51,8.57-8.54,13.26a26.69,26.69,0,0,1-10.47,6.35,34.32,34.32,0,0,1-9.58,1.59l8.54,8.87a52.78,52.78,0,0,0,18.45-5.62A51.05,51.05,0,0,0,610,172.92a49.56,49.56,0,0,0,9.42-15.74,52.52,52.52,0,0,0,1.75-5.62,58.76,58.76,0,0,0,1.66-14.29V47.44L600.7,59.22Z"/><polygon class="cls-1" points="598.33 13.85 612.19 27.99 626.05 13.85 612.19 0 598.33 13.85"/><path class="cls-1" d="M898.53,135.22c-2.95,0-5.12-1.57-6.49-4.72a149,149,0,0,1-8.41-18.41q-4.57-11.62-11.94-26.66-6.78-13.55-20.94-22.54t-36.27-9H736.63L781.75,6.77H755.21L712.75,51V63.63h98.19q16.81,0,25.36,7.81a54,54,0,0,1,13.27,18.7q5.61,12.38,10.32,24a156,156,0,0,0,10.33,21.07H695.05l-.14,0-.15,0H678.24V6.77L656.13,18.56V144.94h38.63l.15,0,.14,0h167.5l8.26-8.54q4.41,8.53,14.74,8.54h5l9.44-9.72Z"/><polygon class="cls-1" points="213.13 255.22 218.74 255.22 218.74 234.7 242.18 234.7 242.18 229.7 218.74 229.7 218.74 215.19 242.66 215.19 242.66 210.19 213.13 210.19 213.13 255.22"/><path class="cls-1" d="M295.08,210.19l-18.11,45h6.42l4-10h22.43l4,10h6.42l-18.18-45Zm-6.08,30L298.6,216l9.52,24.23Z"/><path class="cls-1" d="M363.45,221.67c0-4.25,3.85-7.16,9.26-7.16a17.27,17.27,0,0,1,13,5.4l3.38-4.11c-3.79-4-9.12-6.28-16-6.28-8.86,0-15.48,5.06-15.48,12.49,0,16.06,26.69,9.65,26.69,21.26,0,3.44-2.57,7.76-10.61,7.76a19.06,19.06,0,0,1-14.19-6.41l-3.31,4.25c3.72,4.19,9.46,7.16,17.3,7.16,12.16,0,16.62-6.69,16.62-13.23C390.14,226,363.45,231.79,363.45,221.67Z"/><polygon class="cls-1" points="464.26 229.57 437.9 229.57 437.9 210.19 432.3 210.19 432.3 255.22 437.9 255.22 437.9 234.56 464.26 234.56 464.26 255.22 469.87 255.22 469.87 210.19 464.26 210.19 464.26 229.57"/><rect class="cls-1" x="514.18" y="210.19" width="5.61" height="45.02"/><path class="cls-1" d="M584.65,209.45c-13.38,0-22.37,10-22.37,23.29s9,23.29,22.37,23.29S607,246,607,232.74,598,209.45,584.65,209.45Zm0,41.58c-10.14,0-16.55-7.83-16.55-18.29s6.41-18.29,16.55-18.29,16.55,7.76,16.55,18.29S594.72,251,584.65,251Z"/><polygon class="cls-1" points="681.26 245.36 655.32 210.19 649.57 210.19 649.57 255.22 655.18 255.22 655.18 219.31 681.47 255.22 686.87 255.22 686.87 210.19 681.26 210.19 681.26 245.36"/></svg>